<?xml version="1.0" encoding="UTF-8"?>
<!DOCTYPE svg PUBLIC "-//W3C//DTD SVG 1.1//EN" "http://www.w3.org/Graphics/SVG/1.1/DTD/svg11.dtd">
<!-- Creator: CorelDRAW -->
<svg xmlns="http://www.w3.org/2000/svg" xml:space="preserve" width="6.82666in" height="6.82666in" style="shape-rendering:geometricPrecision; text-rendering:geometricPrecision; image-rendering:optimizeQuality; fill-rule:evenodd; clip-rule:evenodd"
viewBox="0 0 6.82666 6.82666"
 xmlns:xlink="http://www.w3.org/1999/xlink">
 <defs>
  <style type="text/css">
   <![CDATA[
    .fil0 {fill:#FFCA28}
    .fil1 {fill:#FFFFFE}
   ]]>
  </style>
 </defs>
 <g id="Layer_x0020_1">
  <metadata id="CorelCorpID_0Corel-Layer"/>
  <rect class="fil0" width="6.82666" height="6.82666" rx="0.853335" ry="0.853335"/>
  <path class="fil1" d="M3.35828 1.36329l2.3912 2.3912c0.0595354,0.0595354 0.0871181,0.139547 0.0836063,0.220453 -0.00337795,0.0776535 -0.0356654,0.156051 -0.0960394,0.216425l-1.54015 1.54015c-0.0603701,0.0603701 -0.138768,0.0926535 -0.216417,0.0960315 -0.0809173,0.00351181 -0.160929,-0.0240669 -0.220457,-0.0835945l-2.3912 -2.3912c-0.0424331,-0.0424331 -0.32185,-0.687228 -0.368677,-1.26031 -0.0266142,-0.325744 0.0176024,-0.637291 0.210217,-0.829906 0.217713,-0.217713 0.540701,-0.277819 0.871567,-0.26113 0.594063,0.0299685 1.23729,0.322815 1.27635,0.361882zm-1.41738 0.136701c0.0601181,0.0601181 0.0901811,0.138909 0.0901811,0.217693 0,0.0787756 -0.030063,0.157575 -0.0901811,0.217693 -0.0601181,0.0601181 -0.138917,0.0901811 -0.217693,0.0901811 -0.0787835,0 -0.157575,-0.030063 -0.217693,-0.0901811 -0.0601181,-0.0601181 -0.090185,-0.138917 -0.090185,-0.217693 0,-0.0787835 0.0300669,-0.157575 0.090185,-0.217693 0.0601181,-0.0601181 0.138909,-0.090185 0.217693,-0.090185 0.0787756,0 0.157575,0.0300669 0.217693,0.090185zm1.08557 0.774177l0.270335 0.270331 0.149354 -0.149354 -0.434626 -0.434622 -1.04549 1.04549 0.164291 0.164291 0.431642 -0.431638 0.212083 0.212083 0.149354 -0.149354 -0.212083 -0.212083 0.315142 -0.315142zm-0.0358465 1.75643c0.0112047,-0.0271339 0.0258898,-0.0517756 0.043811,-0.0741811 0.0181732,-0.0221535 0.0398268,-0.0457992 0.0652205,-0.0706929l0.161303 -0.161303c0.0365906,-0.0360984 0.0659646,-0.0724409 0.0886181,-0.108535 0.0221575,-0.0360945 0.0358465,-0.072685 0.0408228,-0.109528 0.00498031,-0.0368386 -0.000248031,-0.0749252 -0.0159291,-0.113508 0.0537638,0.0194173 0.106787,0.0201614 0.159811,0.00248819 0.0527717,-0.0174252 0.106039,-0.0532677 0.159807,-0.107035l0.0821457 -0.0821457c0.0540157,-0.0535236 0.0903622,-0.106795 0.108783,-0.159563 0.0186693,-0.0525236 0.0189173,-0.105547 0.000744094,-0.159067 -0.0184213,-0.0537677 -0.0560039,-0.10878 -0.112512,-0.165287l-0.247929 -0.247929 -1.04549 1.04549 0.164291 0.164291 0.425665 -0.425665 0.0567559 0.0567559c0.0251378,0.0246417 0.0410709,0.0495354 0.0480394,0.0739291 0.00722047,0.0246417 0.00472835,0.0505315 -0.00697244,0.0776654 -0.0121929,0.0271339 -0.0343504,0.0567559 -0.0664606,0.0888661l-0.164291 0.164291c-0.0211575,0.0211614 -0.0380866,0.0390827 -0.0512795,0.0532717 -0.0129449,0.014437 -0.0231496,0.0266339 -0.0306181,0.0370906 -0.00746457,0.00995669 -0.0136929,0.0191693 -0.0181693,0.0276299 -0.00472835,0.00821654 -0.0092126,0.0166772 -0.0134409,0.0253937l0.167276 0.167276zm0.628791 -1.16348c0.029122,0.0286299 0.0418189,0.058748 0.0380827,0.0893661 -0.00398425,0.0308701 -0.0246457,0.0649685 -0.0619843,0.101815l-0.103055 0.103051c-0.0276299,0.0276339 -0.0535197,0.0455551 -0.0776614,0.0537677 -0.0241457,0.00821654 -0.0470472,0.00871654 -0.0687087,0.000996063 -0.0214055,-0.00796457 -0.0425669,-0.0221535 -0.0627283,-0.042815l-0.0642205 -0.0642205 0.321114 -0.321118 0.0791614 0.0791575zm0.521252 0.521252l0.283772 0.283776 0.149358 -0.149354 -0.448067 -0.448067 -1.04549 1.04549 0.448067 0.448067 0.149354 -0.149354 -0.283776 -0.283776 0.306181 -0.306181 0.225528 0.225524 0.149354 -0.149354 -0.225528 -0.225524 0.291248 -0.291248zm0.549626 0.54963l0.283776 0.283776 0.149358 -0.149354 -0.448067 -0.448067 -1.04549 1.04549 0.448067 0.448067 0.149354 -0.149358 -0.283776 -0.283772 0.306181 -0.306181 0.225528 0.225524 0.149354 -0.149354 -0.225528 -0.225528 0.291244 -0.291244z"/>
 </g>
</svg>
